#!OML:ASF E:\Style4\Style4.ASF
:FULLY-SPECIFIED
:DEGREES
3120
root 0.68973 17.6822 -2.07918 11.9084 -20.4285 0.674949
lowerback 17.2117 1.17509 -2.08743
upperback 13.5685 1.08939 -1.83524
thorax 4.95814 0.396245 -0.920425
lowerneck 5.63058 -0.152143 -5.7763
upperneck -3.88097 -0.564682 1.72932
head -2.19191 -0.240847 1.57736
rclavicle -1.43125e-014 1.45113e-014
rhumerus 48.5145 24.1896 -44.6123
rradius 103.969
rwrist -53.064
rhand -37.6775 21.3349
rfingers 7.12502
rthumb -10.7282 -8.37113
lclavicle -1.43125e-014 1.45113e-014
lhumerus 46.9113 -22.3613 57.2626
lradius 107.327
lwrist 55.9397
lhand -32.144 40.9792
lfingers 7.12502
lthumb -5.38776 70.8907
rfemur -37.0573 4.07216 17.0875
rtibia 34.7609
rfoot -9.7475 -7.9842
rtoes -9.67697
lfemur -33.285 9.93417 -22.7223
ltibia 39.1863
lfoot -20.8438 19.173
ltoes -7.81935
3121
root 0.685877 17.6799 -2.08209 11.9505 -20.3359 0.591166
lowerback 17.0976 1.1324 -2.50658
upperback 13.5399 0.987649 -1.6726
thorax 4.97642 0.306185 -0.498607
lowerneck 5.68755 0.00943188 -6.1056
upperneck -3.9139 -0.369275 1.90806
head -2.22435 -0.142913 1.68918
rclavicle -6.75868e-015 3.73715e-014
rhumerus 48.9245 24.047 -43.7603
rradius 103.92
rwrist -53.1275
rhand -37.1085 20.8801
rfingers 7.12502
rthumb -10.1794 -8.85364
lclavicle -6.75868e-015 3.73715e-014
lhumerus 46.6585 -22.3704 58.1997
lradius 107.416
lwrist 56.1306
lhand -33.0629 40.9848
lfingers 7.12502
lthumb -6.27494 70.8719
rfemur -37.0611 4.01771 17.1975
rtibia 34.7502
rfoot -9.75964 -7.99182
rtoes -9.65233
lfemur -33.3528 9.93085 -22.6209
ltibia 39.2488
lfoot -20.7515 19.1364
ltoes -8.13828
3122
root 0.680501 17.6777 -2.08841 11.9952 -20.2077 0.576837
lowerback 17.1271 1.13998 -2.39387
upperback 13.4396 1.01453 -1.92522
thorax 4.85527 0.343299 -0.833336
lowerneck 5.77396 -0.00840742 -5.75666
upperneck -3.9342 -0.353945 2.22644
head -2.24743 -0.149782 1.73184
rclavicle 4.92986e-014 -7.83212e-014
rhumerus 48.6757 23.548 -43.6711
rradius 103.77
rwrist -52.9154
rhand -36.4253 20.6287
rfingers 7.12502
rthumb -9.52014 -9.13622
lclavicle 4.92986e-014 -7.83212e-014
lhumerus 46.8003 -22.8647 58.5749
lradius 107.378
lwrist 55.9279
lhand -33.3546 41.0869
lfingers 7.12502
lthumb -6.55651 70.9654
rfemur -37.106 3.91813 17.253
rtibia 34.7484
rfoot -9.78091 -7.98407
rtoes -9.65081
lfemur -33.4749 9.90009 -22.5872
ltibia 39.3114
lfoot -20.5699 19.11
ltoes -8.68532
3123
root 0.673363 17.6771 -2.0934 11.9919 -20.0757 0.525413
lowerback 17.2659 1.19755 -1.8473
upperback 13.3923 1.15676 -2.424
thorax 4.75314 0.480983 -1.6898
lowerneck 5.59551 -0.172562 -4.9601
upperneck -3.83125 -0.481189 2.60926
head -2.17292 -0.236932 1.71605
rclavicle 1.98785e-014 -9.93923e-015
rhumerus 48.0665 22.7074 -43.9862
rradius 103.668
rwrist -52.9057
rhand -35.8988 20.203
rfingers 7.12502
rthumb -9.01215 -9.58449
lclavicle 1.98785e-014 -9.93923e-015
lhumerus 47.3615 -23.6026 58.5391
lradius 107.227
lwrist 55.4258
lhand -32.9356 41.1117
lfingers 7.12502
lthumb -6.15205 71.0024
rfemur -37.0746 3.82421 17.367
rtibia 34.7605
rfoot -9.78527 -8.01364
rtoes -9.75404
lfemur -33.5162 9.86448 -22.4937
ltibia 39.3853
lfoot -20.581 19.07
ltoes -8.60566
